<svg width="833" height="733" viewBox="0 0 833 733" fill="none" xmlns="http://www.w3.org/2000/svg">
<g filter="url(#filter0_d_5_4740)">
<g filter="url(#filter1_d_5_4740)">
<path d="M696.174 473.88C696.658 508.327 681.458 541.582 653.918 566.331C626.378 591.08 588.754 605.295 549.323 605.849C509.892 606.402 471.884 593.25 443.66 569.284C415.436 545.318 399.308 512.503 398.824 478.056L473.162 477.012C473.403 494.236 481.467 510.643 495.579 522.626C509.692 534.609 528.696 541.185 548.411 540.908C568.127 540.632 586.939 533.524 600.709 521.15C614.479 508.775 622.079 492.147 621.837 474.924L696.174 473.88Z" fill="url(#paint0_linear_5_4740)" shape-rendering="crispEdges"/>
</g>
<path d="M622 105.718L698 0V457.5L622 339V105.718Z" fill="url(#paint1_linear_5_4740)"/>
<g filter="url(#filter2_d_5_4740)">
<path d="M423.5 159.5L412.148 1.48364L93.4316 605.072L187.364 606.906L423.5 159.5Z" fill="url(#paint2_linear_5_4740)" fill-opacity="0.98" shape-rendering="crispEdges"/>
</g>
<path d="M379.752 389.822L380.959 463.46L280.499 465.125L321.423 390.788L379.752 389.822Z" fill="#A62AF2"/>
<path d="M479 447L480.74 378L609.014 379.726L645 447L479 447Z" fill="#A62AF2"/>
<path d="M367.827 285.764L428.18 177.901L448.279 329.575L374.921 339.296L367.827 285.764Z" fill="url(#paint3_linear_5_4740)"/>
<path d="M444.878 307.235L450.343 347.998L419.5 385.472L378.091 358.42L371.809 318.829L444.878 307.235Z" fill="url(#paint4_linear_5_4740)"/>
<path d="M513 447L472.049 446.076L440 412.189L473.074 378H513L513 447Z" fill="url(#paint5_linear_5_4740)"/>
<path d="M344 389.644L383.833 390.264L415.327 425.986L383.493 462.603L344.665 462.956L344 389.644Z" fill="url(#paint6_linear_5_4740)"/>
<path d="M428.373 522.954C418.63 524.48 409.229 518.675 406.228 509.281L396.642 479.273L432.584 438.904L471.638 470.571L478.608 515.089L428.373 522.954Z" fill="url(#paint7_linear_5_4740)"/>
</g>
<g filter="url(#filter3_d_5_4740)">
<line x1="738.447" y1="645.5" x2="94" y2="645.5" stroke="black"/>
</g>
<line x1="738.447" y1="645.5" x2="94" y2="645.5" stroke="black"/>
<g filter="url(#filter4_d_5_4740)">
<line x1="738.447" y1="721.5" x2="94" y2="721.5" stroke="black"/>
</g>
<path d="M170.569 708.44V711H144.073V708.44H150.921L145.545 691.8H127.817L122.377 708.44H128.905V711H114.953V708.44H119.305L135.113 659.8H150.409L166.217 708.44H170.569ZM144.713 689.24L136.649 664.536L128.649 689.24H144.713ZM197.428 659.8V662.36H192.308V708.44H197.428V711H172.468V708.44H177.588V662.36H172.468V659.8H197.428ZM264.864 662.36V708.44H269.344V711H243.744V708.44H250.144V662.744L237.536 711H222.496L208.608 662.488V708.44H215.008V711H200.608V708.44H205.728V662.36H200.608V659.8H222.88L236 705.624L247.968 659.8H269.344V662.36H264.864ZM338.947 662.36H333.827V704.408L327.235 711H301.507L294.915 704.408V662.36H289.795V659.8H314.755V662.36H309.635V708.44H325.827L330.947 703.32V662.36H325.827V659.8H338.947V662.36ZM396.811 662.36H391.691V711H374.411L350.155 662.36V708.44H355.275V711H342.155V708.44H347.275V662.36H342.155V659.8H364.555L388.811 708.44V662.36H383.691V659.8H396.811V662.36ZM424.303 659.8V662.36H419.183V708.44H424.303V711H399.343V708.44H404.463V662.36H399.343V659.8H424.303ZM478.619 662.36H474.331L460.059 711H444.763L430.491 662.36H426.203V659.8H452.699V662.36H445.787L458.523 705.752L471.259 662.36H464.347V659.8H478.619V662.36ZM521.682 711H480.53V708.44H485.65V662.36H480.53V659.8H521.682V674.52H518.802V662.36H500.37V683.48H516.882V686.04H500.37V708.44H518.802V696.28H521.682V711ZM553.66 711H528.7V708.44H533.82V662.36H528.7V659.8H567.74L573.692 665.752V680.088L568.38 685.4L573.692 690.712V708.44H578.812V711H564.284L558.972 705.688V686.68H548.54V708.44H553.66V711ZM548.54 662.36V684.12H558.972V662.36H548.54ZM582.013 695.64H584.893V702.552L590.781 708.44H611.389L582.653 674.584V665.752L588.605 659.8H613.757L618.237 664.28V659.16H621.117V675.16H618.237V668.248L612.349 662.36H593.661L622.397 696.216V705.048L616.444 711H589.373L584.893 706.52V711.64H582.013V695.64ZM628.825 695.64H631.705V702.552L637.593 708.44H658.201L629.465 674.584V665.752L635.417 659.8H660.569L665.049 664.28V659.16H667.929V675.16H665.049V668.248L659.161 662.36H640.473L669.209 696.216V705.048L663.257 711H636.185L631.705 706.52V711.64H628.825V695.64ZM714.87 711H673.718V708.44H678.838V662.36H673.718V659.8H714.87V674.52H711.99V662.36H693.558V683.48H710.069V686.04H693.558V708.44H711.99V696.28H714.87V711Z" fill="black"/>
<defs>
<filter id="filter0_d_5_4740" x="88.4316" y="0" width="648.568" height="652.906" filterUnits="userSpaceOnUse" color-interpolation-filters="sRGB">
<feFlood flood-opacity="0" result="BackgroundImageFix"/>
<feColorMatrix in="SourceAlpha" type="matrix" values="0 0 0 0 0 0 0 0 0 0 0 0 0 0 0 0 0 0 127 0" result="hardAlpha"/>
<feOffset dx="17" dy="24"/>
<feGaussianBlur stdDeviation="11"/>
<feComposite in2="hardAlpha" operator="out"/>
<feColorMatrix type="matrix" values="0 0 0 0 0 0 0 0 0 0 0 0 0 0 0 0 0 0 0.57 0"/>
<feBlend mode="normal" in2="BackgroundImageFix" result="effect1_dropShadow_5_4740"/>
<feBlend mode="normal" in="SourceGraphic" in2="effect1_dropShadow_5_4740" result="shape"/>
</filter>
<filter id="filter1_d_5_4740" x="394.824" y="473.88" width="305.361" height="139.985" filterUnits="userSpaceOnUse" color-interpolation-filters="sRGB">
<feFlood flood-opacity="0" result="BackgroundImageFix"/>
<feColorMatrix in="SourceAlpha" type="matrix" values="0 0 0 0 0 0 0 0 0 0 0 0 0 0 0 0 0 0 127 0" result="hardAlpha"/>
<feOffset dy="4"/>
<feGaussianBlur stdDeviation="2"/>
<feComposite in2="hardAlpha" operator="out"/>
<feColorMatrix type="matrix" values="0 0 0 0 0 0 0 0 0 0 0 0 0 0 0 0 0 0 0.25 0"/>
<feBlend mode="normal" in2="BackgroundImageFix" result="effect1_dropShadow_5_4740"/>
<feBlend mode="normal" in="SourceGraphic" in2="effect1_dropShadow_5_4740" result="shape"/>
</filter>
<filter id="filter2_d_5_4740" x="89.4316" y="1.48364" width="338.068" height="613.423" filterUnits="userSpaceOnUse" color-interpolation-filters="sRGB">
<feFlood flood-opacity="0" result="BackgroundImageFix"/>
<feColorMatrix in="SourceAlpha" type="matrix" values="0 0 0 0 0 0 0 0 0 0 0 0 0 0 0 0 0 0 127 0" result="hardAlpha"/>
<feOffset dy="4"/>
<feGaussianBlur stdDeviation="2"/>
<feComposite in2="hardAlpha" operator="out"/>
<feColorMatrix type="matrix" values="0 0 0 0 0 0 0 0 0 0 0 0 0 0 0 0 0 0 0.25 0"/>
<feBlend mode="normal" in2="BackgroundImageFix" result="effect1_dropShadow_5_4740"/>
<feBlend mode="normal" in="SourceGraphic" in2="effect1_dropShadow_5_4740" result="shape"/>
</filter>
<filter id="filter3_d_5_4740" x="88" y="644" width="656.447" height="13" filterUnits="userSpaceOnUse" color-interpolation-filters="sRGB">
<feFlood flood-opacity="0" result="BackgroundImageFix"/>
<feColorMatrix in="SourceAlpha" type="matrix" values="0 0 0 0 0 0 0 0 0 0 0 0 0 0 0 0 0 0 127 0" result="hardAlpha"/>
<feOffset dy="5"/>
<feGaussianBlur stdDeviation="3"/>
<feComposite in2="hardAlpha" operator="out"/>
<feColorMatrix type="matrix" values="0 0 0 0 0 0 0 0 0 0 0 0 0 0 0 0 0 0 0.85 0"/>
<feBlend mode="normal" in2="BackgroundImageFix" result="effect1_dropShadow_5_4740"/>
<feBlend mode="normal" in="SourceGraphic" in2="effect1_dropShadow_5_4740" result="shape"/>
</filter>
<filter id="filter4_d_5_4740" x="88" y="720" width="656.447" height="13" filterUnits="userSpaceOnUse" color-interpolation-filters="sRGB">
<feFlood flood-opacity="0" result="BackgroundImageFix"/>
<feColorMatrix in="SourceAlpha" type="matrix" values="0 0 0 0 0 0 0 0 0 0 0 0 0 0 0 0 0 0 127 0" result="hardAlpha"/>
<feOffset dy="5"/>
<feGaussianBlur stdDeviation="3"/>
<feComposite in2="hardAlpha" operator="out"/>
<feColorMatrix type="matrix" values="0 0 0 0 0 0 0 0 0 0 0 0 0 0 0 0 0 0 0.85 0"/>
<feBlend mode="normal" in2="BackgroundImageFix" result="effect1_dropShadow_5_4740"/>
<feBlend mode="normal" in="SourceGraphic" in2="effect1_dropShadow_5_4740" result="shape"/>
</filter>
<linearGradient id="paint0_linear_5_4740" x1="378.5" y1="608" x2="754" y2="608" gradientUnits="userSpaceOnUse">
<stop offset="0.0416667" stop-color="#A62AF2"/>
<stop offset="0.682292" stop-color="#A62AF2"/>
<stop offset="0.764724" stop-color="#7728A8" stop-opacity="0"/>
<stop offset="0.864583" stop-color="#A62AF2"/>
</linearGradient>
<linearGradient id="paint1_linear_5_4740" x1="511.5" y1="279" x2="991" y2="274" gradientUnits="userSpaceOnUse">
<stop offset="0.250023" stop-color="#0500FF"/>
<stop offset="0.326003" stop-color="#F9F9FF" stop-opacity="0.507409"/>
<stop offset="0.412283" stop-color="#514EBC"/>
</linearGradient>
<linearGradient id="paint2_linear_5_4740" x1="428.5" y1="30" x2="130.716" y2="624.536" gradientUnits="userSpaceOnUse">
<stop stop-color="#F0002B"/>
<stop offset="0.486283" stop-color="#E3406E" stop-opacity="0.473958"/>
<stop offset="1" stop-color="#FF0000" stop-opacity="0.75"/>
</linearGradient>
<linearGradient id="paint3_linear_5_4740" x1="386.254" y1="534.666" x2="396.014" y2="35.9713" gradientUnits="userSpaceOnUse">
<stop offset="0.085415" stop-color="#FF0000" stop-opacity="0"/>
<stop offset="0.205728" stop-color="white"/>
<stop offset="0.393942" stop-color="#9E00FF"/>
</linearGradient>
<linearGradient id="paint4_linear_5_4740" x1="450.621" y1="343.429" x2="450.578" y2="493.056" gradientUnits="userSpaceOnUse">
<stop stop-color="#A62AF2"/>
<stop offset="0.291667" stop-color="#FF0312" stop-opacity="0.557292"/>
<stop offset="1" stop-color="#F5F5F5" stop-opacity="0"/>
</linearGradient>
<linearGradient id="paint5_linear_5_4740" x1="754" y1="412" x2="440" y2="412" gradientUnits="userSpaceOnUse">
<stop offset="0.860419" stop-color="#A62AF2"/>
<stop offset="1" stop-color="#FE0505"/>
</linearGradient>
<linearGradient id="paint6_linear_5_4740" x1="281.782" y1="462.62" x2="586.669" y2="462.519" gradientUnits="userSpaceOnUse">
<stop offset="0.27101" stop-color="#A62AF2"/>
<stop offset="0.508404" stop-color="#FF0000"/>
<stop offset="0.602257" stop-color="#FA00FF"/>
</linearGradient>
<linearGradient id="paint7_linear_5_4740" x1="435" y1="502.5" x2="435" y2="419" gradientUnits="userSpaceOnUse">
<stop stop-color="#9E00FF"/>
<stop offset="1" stop-color="#FF0000"/>
</linearGradient>
</defs>
</svg>
